<svg width="224" height="224" viewBox="0 0 224 224" fill="none" xmlns="http://www.w3.org/2000/svg">
<path d="M174.401 101.497C174.142 102.462 173.634 103.342 172.928 104.048L92.9185 184.059C92.2124 184.766 91.7045 185.645 91.4459 186.61L90.6572 189.553C90.6571 189.554 90.6567 189.554 90.6563 189.555C90.6558 189.555 90.6555 189.556 90.6553 189.556L82.5553 219.782C81.8887 222.27 79.6342 224 77.0587 224H5.69055C2.54774 224 0 221.452 0 218.309V146.383C0 143.807 1.72997 141.553 4.21785 140.886L34.0048 132.906C34.0054 132.905 34.006 132.905 34.0064 132.905C34.0069 132.904 34.0075 132.904 34.0081 132.904L36.9513 132.115C37.9159 131.856 38.7954 131.349 39.5016 130.642L119.513 50.6329C120.219 49.9266 121.099 49.4186 122.063 49.1601L184.037 32.5542C188.269 31.4204 192.141 35.2923 191.007 39.5237L174.401 101.497Z" fill="#2375D7"/>
<path d="M149.979 216.837C150.947 220.451 148.224 224 144.482 224H124.19C120.449 224 117.725 220.451 118.694 216.837L122.058 204.282C122.316 203.317 122.824 202.437 123.531 201.731L134.229 191.034C137.326 187.936 142.615 189.354 143.749 193.585L149.979 216.837Z" fill="#2375D7"/>
<path d="M224 218.309C224 221.452 221.452 224 218.309 224H191.613C189.037 224 186.783 222.27 186.116 219.782L169.927 159.359C169.401 157.395 169.963 155.3 171.4 153.863L203.539 121.723C204.245 121.017 204.753 120.137 205.011 119.173L205.802 116.228L212.813 90.0599C214.535 83.6326 224 84.8787 224 91.5327V218.309Z" fill="#2375D7"/>
<path d="M29.9755 79.812C34.2069 80.9457 35.6242 86.2349 32.5266 89.3325L21.8301 100.029C21.1237 100.735 20.2439 101.243 19.279 101.502L7.16325 104.748C3.54909 105.716 0 102.993 0 99.2513V79.1966C0 75.4549 3.5491 72.7316 7.16327 73.6999L29.9755 79.812Z" fill="#2375D7"/>
<path d="M107.333 17.7593L104.39 18.5487C103.425 18.807 102.544 19.3152 101.837 20.0222L69.6969 52.1622C68.2594 53.5997 66.1641 54.1612 64.2003 53.635L4.21775 37.563C1.72993 36.8964 0 34.6419 0 32.0663V5.69055C0 2.54774 2.54774 0 5.69055 0H130.388C137.042 0 138.288 9.46499 131.861 11.1872L107.333 17.7593Z" fill="#2375D7"/>
</svg>
