<svg width="800" height="352" viewBox="0 0 800 352" fill="none" xmlns="http://www.w3.org/2000/svg">
<path d="M95.4102 291.766C95.4102 304.836 92.9756 315.702 88.1064 324.364C83.2372 333.026 76.3691 339.535 67.5021 343.892C58.6863 348.197 48.3073 350.35 36.365 350.35H0V237.949H38.9021C50.9982 237.949 61.2491 240.025 69.6548 244.176C78.0605 248.328 84.4417 254.402 88.7983 262.397C93.2062 270.393 95.4102 280.183 95.4102 291.766ZM63.8887 292.842C63.8887 286.026 62.9661 280.388 61.1209 275.928C59.327 271.418 56.6105 268.061 52.9715 265.857C49.3324 263.602 44.7451 262.474 39.2097 262.474H30.3683V325.44H37.1339C46.3597 325.44 53.1252 322.775 57.4306 317.445C61.736 312.063 63.8887 303.862 63.8887 292.842Z" fill="#161616"/>
<path d="M220.152 350.35H153.419V237.949H220.152V262.32H183.787V280.003H217.461V304.375H183.787V325.594H220.152V350.35Z" fill="#161616"/>
<path d="M316.525 237.949C330.774 237.949 341.435 241.05 348.508 247.252C355.632 253.453 359.194 262.269 359.194 273.699C359.194 278.824 358.451 283.745 356.965 288.46C355.53 293.176 353.146 297.378 349.815 301.069C346.534 304.759 342.152 307.681 336.668 309.833C331.235 311.986 324.521 313.062 316.525 313.062H307.991V350.35H277.623V237.949H316.525ZM315.833 262.474H307.991V288.306H313.988C316.602 288.306 319.036 287.871 321.292 286.999C323.547 286.077 325.341 284.616 326.673 282.617C328.057 280.567 328.749 277.851 328.749 274.468C328.749 270.931 327.698 268.061 325.597 265.857C323.496 263.602 320.241 262.474 315.833 262.474Z" fill="#161616"/>
<path d="M414.897 350.35V237.949H445.265V325.825H488.549V350.35H414.897Z" fill="#161616"/>
<path d="M649.503 293.996C649.503 302.658 648.452 310.551 646.35 317.675C644.3 324.748 641.071 330.848 636.663 335.973C632.255 341.098 626.592 345.045 619.672 347.813C612.753 350.529 604.476 351.888 594.84 351.888C585.409 351.888 577.234 350.529 570.314 347.813C563.446 345.045 557.783 341.124 553.324 336.05C548.864 330.924 545.559 324.8 543.406 317.675C541.253 310.551 540.177 302.606 540.177 293.842C540.177 282.156 542.099 272.008 545.943 263.397C549.838 254.735 555.835 248.046 563.933 243.331C572.031 238.564 582.385 236.181 594.993 236.181C607.807 236.181 618.212 238.564 626.207 243.331C634.254 248.097 640.149 254.812 643.89 263.474C647.632 272.136 649.503 282.31 649.503 293.996ZM572.16 293.996C572.16 300.761 572.928 306.579 574.466 311.448C576.004 316.317 578.438 320.059 581.77 322.673C585.101 325.286 589.458 326.593 594.84 326.593C600.426 326.593 604.86 325.286 608.14 322.673C611.472 320.059 613.855 316.317 615.29 311.448C616.777 306.579 617.52 300.761 617.52 293.996C617.52 283.847 615.828 275.826 612.446 269.932C609.063 264.037 603.245 261.09 594.993 261.09C589.509 261.09 585.076 262.423 581.693 265.088C578.361 267.753 575.927 271.546 574.389 276.467C572.903 281.387 572.16 287.23 572.16 293.996Z" fill="#161616"/>
<path d="M747.72 279.619L767.095 237.949H800L763.02 306.45V350.35H732.421V307.373L695.441 237.949H728.5L747.72 279.619Z" fill="#161616"/>
<path d="M443.795 71.3446C443.614 72.0228 443.257 72.6413 442.76 73.1377L386.52 129.379C386.024 129.875 385.667 130.494 385.485 131.172L384.93 133.241C384.93 133.241 384.93 133.241 384.93 133.242C384.929 133.242 384.929 133.242 384.929 133.243L379.235 154.489C378.767 156.238 377.182 157.454 375.372 157.454H325.206C322.996 157.454 321.206 155.663 321.206 153.454V102.896C321.206 101.085 322.422 99.5004 324.17 99.0318L345.108 93.4221C345.109 93.4219 345.109 93.4217 345.109 93.4214C345.11 93.4211 345.11 93.4208 345.111 93.4207L347.179 92.8663C347.857 92.6846 348.476 92.3276 348.972 91.8312L405.213 35.5909C405.71 35.0944 406.328 34.7373 407.006 34.5556L450.569 22.883C453.543 22.086 456.265 24.8077 455.468 27.782L443.795 71.3446Z" fill="#2375D7"/>
<path d="M426.629 152.419C427.31 154.959 425.395 157.454 422.765 157.454H408.501C405.871 157.454 403.957 154.959 404.638 152.419L407.002 143.594C407.184 142.916 407.541 142.297 408.038 141.801L415.558 134.281C417.735 132.104 421.453 133.1 422.25 136.075L426.629 152.419Z" fill="#2375D7"/>
<path d="M478.66 153.454C478.66 155.663 476.869 157.454 474.66 157.454H455.894C454.084 157.454 452.499 156.238 452.03 154.489L440.651 112.017C440.281 110.636 440.676 109.164 441.686 108.153L464.277 85.5614C464.773 85.065 465.13 84.4468 465.312 83.7688L465.868 81.6987L470.796 63.3049C472.006 58.7871 478.66 59.663 478.66 64.3402V153.454Z" fill="#2375D7"/>
<path d="M342.276 56.1015C345.25 56.8984 346.247 60.6163 344.069 62.7936L336.55 70.3124C336.054 70.8089 335.435 71.166 334.757 71.3477L326.241 73.6295C323.7 74.3101 321.206 72.3958 321.206 69.7657V55.6689C321.206 53.0388 323.7 51.1245 326.241 51.8051L342.276 56.1015Z" fill="#2375D7"/>
<path d="M396.652 12.4834L394.584 13.0382C393.905 13.2198 393.286 13.5771 392.789 14.074L370.197 36.6658C369.186 37.6763 367.714 38.071 366.333 37.7011L324.17 26.4038C322.422 25.9352 321.206 24.3505 321.206 22.5401V4C321.206 1.79086 322.996 0 325.206 0H412.858C417.535 0 418.411 6.65313 413.893 7.8637L396.652 12.4834Z" fill="#2375D7"/>
</svg>
